<?xml version="1.0" encoding="UTF-8"?>
<svg id="Capa_1" data-name="Capa 1" xmlns="http://www.w3.org/2000/svg" viewBox="0 0 859.74 83.62">
  <defs>
    <style>
      .cls-1 {
        stroke-width: 0px;
      }

      .cls-1, .cls-2 {
        fill: #270e0b;
      }

      .cls-3 {
        fill: none;
        stroke: #270e0b;
        stroke-miterlimit: 10;
        stroke-width: 2.5px;
      }

      .cls-2 {
        font-family: Ebrima-Bold, Ebrima;
        font-size: 15.74px;
        font-weight: 700;
      }
    </style>
  </defs>
  <path class="cls-1" d="m92.1,82.25h-18.2c-.51,0-.94-.39-.99-.9l-3.83-41.56c-.1-1.07-1.6-1.24-1.93-.21l-13.44,41.99c-.13.42-.51.69-.94.69h-12.44c-.43,0-.81-.27-.94-.69l-13.45-41.99c-.33-1.03-1.83-.86-1.93.21l-3.83,41.56c-.05.51-.47.9-.99.9H.99c-.6,0-1.06-.52-.98-1.12L10.29.99c.06-.49.48-.87.98-.87h21.03c.44,0,.82.29.95.71l12.5,40.63c.29.94,1.62.93,1.9,0L59.72.84c.13-.42.51-.71.95-.71h21.16c.5,0,.92.37.98.87l10.28,80.13c.08.6-.38,1.12-.98,1.12Z"/>
  <path class="cls-1" d="m154.02,20.58v60.09c0,.55-.44.99-.99.99h-17.35c-.55,0-.99-.44-.99-.99v-1.67c0-.39-.44-.63-.77-.41-4.33,2.98-8.63,4.01-12.51,4.01-8.62,0-15.13-5.11-15.23-5.19-.5-.39-.97-.8-1.4-1.23-6.33-6.37-7.4-11.52-7.4-20.67V20.58c0-.55.44-.99.99-.99h18.51c.55,0,.99.44.99.99v33.96c0,2.31.13,4.94,1.1,7.08.44.9,1.03,1.65,1.74,2.21,1.16.91,2.66,1.35,4.58,1.35,3.57,0,6.34-1.23,7.22-3.21,1-2.15,1-5.08,1-7.43V20.58c0-.55.44-.99.99-.99h18.51c.55,0,.99.44.99.99Z"/>
  <path class="cls-1" d="m218.4,45.74v34.94c0,.55-.44.99-.99.99h-18.51c-.55,0-.99-.44-.99-.99v-33.96c0-2.31-.13-4.94-1.1-7.08-.44-.9-1.03-1.65-1.74-2.21-1.16-.91-2.66-1.35-4.58-1.35-3.57,0-6.34,1.23-7.22,3.21-1,2.14-1,5.08-1,7.43v33.96c0,.55-.44.99-.99.99h-18.51c-.55,0-.99-.44-.99-.99V20.58c0-.55.44-.99.99-.99h17.35c.55,0,.99.44.99.99v1.67c0,.39.44.63.77.41,13.98-9.62,27.59,1.06,27.73,1.17.5.39.97.8,1.4,1.23,6.33,6.37,7.4,11.52,7.4,20.67Z"/>
  <path class="cls-1" d="m293.19.99v79.65c0,.55-.44.99-.99.99h-17.35c-.55,0-.99-.44-.99-.99v-.91c0-.39-.41-.62-.74-.43-4.97,2.81-10.59,4.29-16.36,4.29-18.17,0-32.96-14.58-32.96-32.5s14.79-32.51,32.96-32.51c5.77,0,11.39,1.48,16.36,4.29.33.18.74-.05.74-.43V.99c0-.54.44-.99.99-.99h17.35c.55,0,.99.44.99.99Zm-19.33,50.1c0-8.22-5.79-14.91-14.13-14.91s-15.12,6.69-15.12,14.91,6.78,14.91,15.12,14.91,14.13-6.68,14.13-14.91Z"/>
  <path class="cls-1" d="m362.79,51.11c0,17.92-14.79,32.5-32.96,32.5s-32.96-14.58-32.96-32.5,14.79-32.51,32.96-32.51,32.96,14.58,32.96,32.51Zm-18.59,0c0-7.82-6.45-14.17-14.37-14.17s-14.37,6.35-14.37,14.17,6.45,14.17,14.37,14.17,14.37-6.36,14.37-14.17Z"/>
  <path class="cls-1" d="m437.59,41.41c0,7.9-2.2,15.58-6.37,22.2-4.05,6.44-9.77,11.59-16.52,14.89-4.35,2.13-8.11,3.97-20.41,3.97h-24.51c-.56,0-1.02-.45-1.02-1.02V1.38c0-.57.46-1.03,1.03-1.03h23.88c10.62,0,15.69,1.59,19.59,3.31,14.78,6.51,24.33,21.33,24.33,37.75Zm-20.64-.05c-.15-21.35-22.15-22.16-27.18-22.07-.57,0-1.02.47-1.02,1.04v41.97c0,.59.48,1.06,1.06,1.06h1.1c8.71,0,16.52-2.45,20.36-6.38,3.71-3.81,5.68-9.21,5.68-15.62Z"/>
  <path class="cls-1" d="m508.58,51.1c0,1.79-.21,3.9-.53,5.77-.08.48-.49.83-.98.83h-43.48c-.77,0-1.24.84-.85,1.5,2.67,4.53,7.46,7.35,12.74,7.35,4.49,0,8.68-1.98,11.67-5.8.23-.29.6-.44.96-.37l16.65,2.99c.65.11,1,.81.72,1.4-.37.78-.85,1.75-1.12,2.24h.01s-.28.46-.28.46c-.25.43-.52.85-.83,1.33-.39.59-.74,1.1-1.1,1.57l-.21.29h-.01c-.12.15-.24.3-.36.45l-.19.23c-.23.28-.45.55-.68.81l-.19.23c-.37.42-.74.81-1.14,1.23l-.22.23c-.26.26-.52.52-.79.78l-.08.08c-.29.27-.59.54-.9.8l-.33.28-.37-.33.32.37c-.47.39-.9.75-1.34,1.08l-.37.27c-.51.37-1.04.74-1.57,1.09l-.15.1c-.61.39-1.23.76-1.85,1.11l-.18.1c-.15.08-.3.16-.45.25l-.11.05c-.29.16-.55.28-.8.41l-.15.07c-.59.28-1.14.54-1.69.76l-.11.04c-.37.16-.7.28-1.03.4l-.41.15c-.41.14-.81.28-1.23.41l-.07.03c-.44.13-.91.27-1.44.41l-.37.09c-.95.23-1.9.42-2.84.57l-.36.06c-1,.15-1.99.25-2.98.3l-.36.02c-.59.03-1.07.04-1.52.04s-.96,0-1.53-.04l-.34-.02h-.11c-.37-.03-.75-.06-1.12-.08h-.11c-.11-.02-.22-.04-.33-.04-.54-.06-1.01-.12-1.45-.18h-.01s-.02,0-.02,0l-.26-.04c-.4-.06-.8-.13-1.2-.22l-.43-.09c-.36-.07-.71-.16-1.06-.24l-.11-.03c-.11-.03-.21-.05-.31-.08-.53-.13-.99-.26-1.41-.39-.47-.14-.93-.3-1.38-.46-.11-.04-.22-.08-.32-.12l-.08-.03c-.33-.13-.67-.25-1-.39l-.09-.04c-.1-.04-.2-.08-.3-.13-.44-.19-.88-.38-1.31-.59l-.05-.02c-.39-.18-.81-.4-1.23-.63-.1-.05-.2-.11-.3-.16l-.08-.05c-.31-.17-.61-.34-.92-.51l-.37-.22c-.4-.25-.8-.49-1.2-.75-3.93-2.62-7.31-6.11-9.77-10.11-.2-.33-.41-.67-.6-1.01l-.08-.16c-.18-.33-.36-.66-.53-1l-.1-.18c-.05-.11-.11-.2-.16-.31-.62-1.26-1.17-2.61-1.64-4-.26-.78-.45-1.43-.62-2.06-.13-.51-.26-1.04-.37-1.57-.33-1.59-.54-3.24-.63-4.88-.03-.55-.04-1.11-.04-1.67s.01-1.12.04-1.67c.15-2.88.69-5.74,1.61-8.5.31-.91.61-1.72.93-2.48.19-.44.39-.87.6-1.29.05-.1.1-.2.15-.3l.12-.25c.05-.11.1-.2.15-.3s.11-.2.17-.3l.29-.53c.23-.41.47-.82.71-1.22,2.46-3.99,5.84-7.49,9.77-10.1.39-.26.79-.51,1.2-.76l.36-.21c.3-.18.61-.35.92-.52l.08-.04c.1-.06.2-.11.3-.16.42-.22.84-.44,1.28-.64.44-.21.87-.4,1.31-.59.1-.04.2-.08.31-.12l.09-.04c.33-.13.66-.26.99-.39l.1-.04c.1-.04.21-.07.31-.11.45-.16.91-.31,1.37-.46.47-.14.94-.27,1.41-.39.1-.02.21-.05.31-.08l.11-.02c.35-.09.71-.17,1.06-.25l.25-.05c.43-.09,1.13-.22,1.57-.28h.08s.01-.01.02-.01h.01c.43-.07.91-.13,1.45-.18.11-.01.22-.02.32-.04h.12c.37-.04.74-.07,1.12-.09h.09c.12-.01.24-.02.36-.03.57-.02,1.07-.04,1.53-.04s.93.01,1.51.04l.36.02c1,.06,1.99.16,2.95.3l.39.06c.94.15,1.89.34,2.81.57l.41.1c.53.14.99.27,1.41.4l.07.02c.43.13.84.27,1.24.42.12.04.25.09.37.13.37.14.7.27,1.03.4l.17.06c.53.22,1.1.47,1.67.75l.14.07c.29.13.54.27.79.39l.09.05-.21.44.26-.42c.16.08.31.16.45.24.56.31,1.46.85,2.01,1.19l.07.04c.57.37,1.11.75,1.64,1.13l.09.06c.11.08.22.16.32.24.45.34.88.69,1.35,1.08l.26.23c.35.29.69.59,1.02.91l.08.08c.26.25.53.51.79.77l.2.2c.41.42.79.82,1.13,1.22l-.32.38.37-.32.17.2c.22.26.44.52.66.79l.2.25c.25.32.5.63.74.97l.04.04c.2.26.39.53.57.8l.35.54c.16.24.31.48.46.72l.61,1.01h-.01c1.23,2.15,2.2,4.42,2.89,6.75.89,2.99,1.34,6.08,1.34,9.18Zm-19.42-8.24c-.77-4.58-6.07-8.14-12.8-8.14-6.12,0-11.92,3.55-12.79,8.12-.11.61.36,1.18.98,1.18h23.62c.62,0,1.09-.55.98-1.16Z"/>
  <path class="cls-1" d="m533.23,1.02v79.65c0,.55-.44.99-.99.99h-18.34c-.55,0-.99-.44-.99-.99V1.02c0-.54.44-.99.99-.99h18.34c.55,0,.99.44.99.99Z"/>
  <path class="cls-1" d="m560.32,34.23v46.44c0,.55-.44.99-.99.99h-17.35c-.55,0-.99-.44-.99-.99v-46.44c0-.55.44-.99.99-.99h17.35c.55,0,.99.44.99.99Z"/>
  <path class="cls-1" d="m626.15,68.16c-.49.77-1.2,1.83-1.59,2.35,0,0-.01.02-.02.03-.61.8-1.26,1.58-1.94,2.32-.01.02-.03.04-.05.06-.27.3-.74.77-1.02,1.06-.05.05-.1.11-.16.16-.29.29-.59.56-.9.85-.18.16-.36.32-.54.47-.12.11-.25.21-.38.32-4.77,4-10.63,6.64-16.89,7.51-.21.03-.42.06-.63.08-.26.03-.51.06-.78.08-.4.04-.8.07-1.21.09-.15,0-.29.01-.44.02-.49.02-.98.04-1.47.04-18.17,0-32.96-14.58-32.96-32.5s14.79-32.51,32.96-32.51c.49,0,.98.02,1.47.04.15,0,.29.01.44.02.41.02.81.05,1.21.09.26.02.52.05.78.08.21.02.42.05.63.08,6.26.87,12.13,3.5,16.89,7.52.13.11.25.21.38.32.18.16.36.32.54.48.3.27.6.55.9.84.06.05.11.11.17.16.31.31.61.62.91.94.05.05.1.11.16.16.68.74,1.33,1.52,1.94,2.32.01,0,.02.02.02.03.62.82,1.2,1.67,1.75,2.55.23.37.1.85-.27,1.06l-8.8,5.08-5.09,2.93c-.45.26-1.03.13-1.31-.3-2.89-4.39-6.9-6.82-11.69-6.82s-8.82,2.09-11.59,5.35c-2.34,2.52-3.77,5.88-3.77,9.56s1.43,7.04,3.77,9.55c2.77,3.27,6.94,5.35,11.59,5.35s8.8-2.43,11.69-6.81c.28-.43.86-.56,1.31-.3l13.66,7.89c.49.29.65.92.34,1.4Z"/>
  <path class="cls-1" d="m651.13,34.23v46.44c0,.55-.44.99-.99.99h-17.35c-.55,0-.99-.44-.99-.99v-46.44c0-.55.44-.99.99-.99h17.35c.55,0,.99.44.99.99Z"/>
  <path class="cls-1" d="m721.86,51.11c0,17.92-14.79,32.5-32.96,32.5s-32.96-14.58-32.96-32.5,14.79-32.51,32.96-32.51,32.96,14.58,32.96,32.51Zm-18.59,0c0-7.82-6.45-14.17-14.37-14.17s-14.37,6.35-14.37,14.17,6.44,14.17,14.37,14.17,14.37-6.36,14.37-14.17Z"/>
  <path class="cls-1" d="m773.01,63.15c-.16,2.17-.72,4.48-1.67,6.87-3.71,7.91-12.29,12.61-22.96,12.61-1.47,0-2.99-.09-4.51-.27-4.81-.56-9-1.84-12.49-3.8-3.58-2.43-6.31-5.81-8.16-10.08-.25-.58.08-1.24.7-1.37l17.01-3.66c.39-.08.8.08,1.03.42,1.19,1.78,3.22,2.64,4.32,2.78,2.6.31,3.95-.39,4.63-1.03.68-.65.99-1.53.87-2.48-.27-2.16-1.56-3.16-8.14-6.29l-.08-.04c-1.31-.63-2.94-1.4-4.76-2.31-1.26-.54-2.48-1.13-3.62-1.74l-.1-.06c-.16-.1-.32-.2-.5-.3-5.9-3.38-9.35-7.5-10.23-12.25-1.27-6.78,3.09-12.52,3.98-13.61,1.32-1.49,2.85-2.79,4.57-3.89,5.16-3.29,11.82-4.65,18.74-3.84,4.15.49,7.92,1.6,11.2,3.32,1.56.82,3,1.79,4.3,2.88.89.8,3.67,3.55,4.53,7.76.11.53-.25,1.05-.78,1.16l-16.74,3.38c-.47.1-.93-.17-1.11-.62-.47-1.16-1.5-2.33-3.71-2.59-1.47-.17-2.79.27-3.64,1.2-.64.71-.91,1.6-.7,2.32.32,1.11,1.47,2.88,7.71,5.43,1.24.49,2.38.92,3.52,1.4,1.46.51,2.87,1.08,4.18,1.66h0c3.98,1.86,13.17,7.24,12.62,17.04Z"/>
  <path class="cls-1" d="m841.45,51.11c0,17.92-14.79,32.5-32.96,32.5s-32.96-14.58-32.96-32.5,14.79-32.51,32.96-32.51,32.96,14.58,32.96,32.51Zm-18.59,0c0-7.82-6.45-14.17-14.37-14.17s-14.37,6.35-14.37,14.17,6.44,14.17,14.37,14.17,14.37-6.36,14.37-14.17Z"/>
  <text class="cls-2" transform="translate(841.38 24.72) scale(1.16 1)"><tspan x="0" y="0">R</tspan></text>
  <circle class="cls-3" cx="847.58" cy="19.57" r="11.16"/>
  <circle class="cls-1" cx="550.4" cy="18.57" r="9.67"/>
  <circle class="cls-1" cx="641.21" cy="18.57" r="9.67"/>
</svg>