<?xml version="1.0" encoding="UTF-8"?>
<svg id="Capa_1" data-name="Capa 1" xmlns="http://www.w3.org/2000/svg" viewBox="0 0 100 59.13">
  <defs>
    <style>
      .cls-1 {
        fill: #361410;
      }

      .cls-2 {
        fill: #e8dfd7;
      }

      .cls-3 {
        fill: #540a05;
      }
    </style>
  </defs>
  <rect class="cls-1" y="9.13" width="100" height="50" rx="10.25" ry="10.25"/>
  <rect class="cls-3" width="100" height="50" rx="10.25" ry="10.25"/>
  <g>
    <path class="cls-2" d="m29.14,20.82c.06.32-.11.56-.34.58l-5.27.73c-.21,0-.41-.11-.49-.37-.22-.58-.8-.84-1.14-.84-.47,0-1.18.37-1.18,1.2,0,1.03,1.08,1.16,1.64,1.16,1.81,0,6.95-.43,6.95,5.4,0,4.73-3.42,6.22-6.13,6.22-5.38,0-6.95-2.37-7.83-4.82-.17-.32-.11-.54.22-.6l5.77-.69c.32-.06.41.04.47.22.22.86.8.97,1.14.97.6,0,1.18-.5,1.18-1.18s-.58-1.14-1.29-1.14h-1.29c-3.64,0-6.35-2.15-6.35-5.9,0-5.98,6.91-5.62,7.16-5.62,5.53,0,6.56,3.51,6.8,4.67Z"/>
    <path class="cls-2" d="m44.97,18.45v14.11c0,.9-.71,1.61-1.61,1.61h-2.71c-.88,0-1.59-.71-1.59-1.61v-3.81c0-.15-.11-.24-.22-.28h-1.48c-.15.04-.22.13-.24.28v3.81c0,.9-.71,1.61-1.59,1.61h-2.71c-.88,0-1.59-.71-1.59-1.61v-14.11c0-.88.71-1.59,1.59-1.59h2.71c.88,0,1.59.71,1.59,1.59v3.85c.02.11.13.24.24.26h1.48c.11-.02.22-.15.22-.28v-3.83c0-.88.71-1.59,1.59-1.59h2.71c.9,0,1.61.71,1.61,1.59Z"/>
    <path class="cls-2" d="m51.23,34.16h-2.67c-.84,0-1.53-.73-1.53-1.55v-14.14c0-.9.69-1.55,1.53-1.55h2.67c.9,0,1.55.65,1.55,1.55v14.14c0,.82-.65,1.55-1.55,1.55Z"/>
    <path class="cls-2" d="m66.35,18.11v2.41c0,.6-.49,1.12-1.12,1.12h-4.39c-.09,0-.15.09-.15.15v1.98c0,.09.06.15.15.15h3.16c.56,0,1.03.45,1.03,1.03v2.37c0,.56-.47,1.01-1.03,1.01h-3.16c-.09.02-.15.06-.15.17v4.04c0,.88-.71,1.59-1.59,1.59h-2.69c-.86,0-1.57-.71-1.57-1.59v-13.98c0-.88.71-1.59,1.57-1.59h8.82c.62,0,1.12.5,1.12,1.14Z"/>
    <path class="cls-2" d="m83.41,18.43v2.95c0,.82-.69,1.51-1.51,1.51h-2.95c-.09,0-.17.09-.17.15v9.64c0,.82-.69,1.51-1.51,1.51h-2.93c-.86,0-1.53-.69-1.53-1.51v-9.64c0-.06-.06-.15-.15-.15h-2.97c-.82,0-1.51-.69-1.51-1.51v-2.95c0-.84.69-1.51,1.51-1.51h12.2c.82,0,1.51.67,1.51,1.51Z"/>
  </g>
</svg>