<?xml version="1.0" encoding="UTF-8"?>
<svg id="Capa_1" data-name="Capa 1" xmlns="http://www.w3.org/2000/svg" viewBox="0 0 191.7 190.47">
  <defs>
    <style>
      .cls-1 {
        fill: #e8dfd7;
      }
    </style>
  </defs>
  <path class="cls-1" d="m97.06,15c43.91,0,79.64,35.11,79.64,78.27s-35.73,78.27-79.64,78.27c-13.69,0-27.18-3.46-39.01-10.02l-5.61-3.11-6.12,1.91-22.96,7.16,6.97-21.2,2.18-6.62-3.65-5.93c-7.49-12.17-11.45-26.16-11.45-40.46C17.41,50.11,53.14,15,97.06,15m0-15C44.78,0,2.41,41.76,2.41,93.27c0,17.69,5,34.23,13.67,48.32L0,190.47l50.78-15.83c13.68,7.58,29.47,11.9,46.28,11.9,52.27,0,94.64-41.76,94.64-93.27S149.33,0,97.06,0h0Z"/>
  <path class="cls-1" d="m79.63,78.6l-3.83,5.33c-.86,1.2-.94,2.79-.18,4.05,2.46,4.13,8.37,13.21,15.15,17.5,6.34,4.01,13.11,7.36,16.5,8.96,1.3.61,2.85.32,3.83-.73l7.93-8.5c1.6-1.71,4.12-2.2,6.24-1.2l15.93,7.49c2.38,1.12,3.78,3.63,3.5,6.25-.5,4.57-2.4,10.2-8.33,14.41-5.06,3.59-10.9,4.49-15.73,4.01-7.71-.77-22.75-2.81-44.51-22.47-9.59-8.66-15.43-16.69-18.97-22.95-4.43-7.83-6.14-16.98-4.36-25.8.64-3.17,1.7-6.3,3.45-8.53,4.92-6.3,8.13-6.84,12.84-6.42s5.13,2.83,5.13,2.83l6.48,18.49c.86,2.45.47,5.16-1.05,7.26Z"/>
</svg>