<?xml version="1.0" encoding="UTF-8"?>
<svg id="Capa_1" data-name="Capa 1" xmlns="http://www.w3.org/2000/svg" viewBox="0 0 358.58 358.11">
  <defs>
    <style>
      .cls-1 {
        fill: #fff;
      }

      .cls-2 {
        fill: #4caf50;
      }
    </style>
  </defs>
  <path class="cls-2" d="m358.58,179.05c0,98.89-80.16,179.06-179.05,179.06-32.04,0-62.1-8.41-88.12-23.15L0,358.11l25.1-88.38C9.45,243.14.47,212.14.47,179.05.47,80.16,80.64,0,179.53,0s179.05,80.16,179.05,179.05Z"/>
  <path class="cls-1" d="m123.29,93.16c-5.96.07-11.67,2.48-16.08,6.49-5.1,4.63-12.45,12.11-14.7,18.59-3.56,10.26-5.65,35.37,6.49,54.21s24.49,34.53,34.12,43.33,28.68,28.37,57.08,38.79c2.09.77,4.15,1.59,6.21,2.43,10.71,4.36,47.35,16.76,65.89-9.01,2.8-3.9,4.79-8.32,6.08-12.95.99-3.58,2.19-8.3,2.19-10.18,0-3.21.14-6.56-5.86-8.93-5-1.97-26.19-11.59-33.15-14.76-1.03-.47-2.03-.99-3.04-1.5-1.54-.79-4.97-1.91-7.8,1.78-3.77,4.92-15.7,20.51-15.7,20.51,0,0-1.36,2.27-6.03-.03s-25.53-10.6-37.12-22.19-24.28-25.67-26.65-32.65c0,0-1.15-3.42,2.65-8.09,3.5-4.3,12.98-15.35,12.98-15.35,0,0,1.81-2.23-.7-8.09s-15.35-36.14-15.35-36.14c0,0-1.59-6.37-11.5-6.25Z"/>
</svg>