<?xml version="1.0" encoding="UTF-8"?>
<svg id="Capa_1" data-name="Capa 1" xmlns="http://www.w3.org/2000/svg" viewBox="0 0 654.08 576.98">
  <defs>
    <style>
      .cls-1 {
        fill: #aa3630;
        stroke-width: 0px;
      }
    </style>
  </defs>
  <path class="cls-1" d="m647.11,576.98h-127.86c-3.59,0-6.59-2.72-6.94-6.34l-26.92-292.03c-.69-7.53-11.25-8.72-13.57-1.49l-94.45,295c-.94,2.92-3.62,4.85-6.64,4.85h-87.39c-3.02,0-5.72-1.93-6.64-4.85l-94.47-295c-2.3-7.23-12.88-6.04-13.57,1.49l-26.92,292.03c-.32,3.62-3.32,6.34-6.94,6.34H6.97c-4.21,0-7.46-3.67-6.91-7.88L72.26,6.09c.45-3.47,3.39-6.09,6.91-6.09h147.77c3.07,0,5.77,2.03,6.66,4.95l87.81,285.49c2.03,6.59,11.37,6.54,13.35-.05L419.6,5c.89-2.97,3.62-5,6.69-5h148.64c3.49,0,6.44,2.63,6.89,6.09l72.2,563.01c.54,4.21-2.7,7.88-6.91,7.88Z"/>
</svg>